<svg width="249" height="50" viewBox="0 0 249 50" fill="none" xmlns="http://www.w3.org/2000/svg">
<path fill-rule="evenodd" clip-rule="evenodd" d="M35.5899 19.6599C35.5899 21.8822 35.1792 23.9595 34.3577 25.8918C33.5362 27.8242 32.4248 29.5392 30.9992 30.9884C29.5737 32.4377 27.9307 33.5971 26.022 34.4426C24.1132 35.288 22.0836 35.7227 19.9333 35.7227C17.7829 35.7227 15.7292 35.288 13.8446 34.4426C11.9358 33.5971 10.2687 32.4377 8.84312 30.9884C7.41759 29.5392 6.282 27.8242 5.46051 25.8918C4.63902 23.9595 4.22827 21.858 4.22827 19.6599C4.22827 17.4377 4.63902 15.3604 5.46051 13.4039C6.282 11.4474 7.39343 9.7324 8.84312 8.28313C10.2687 6.83385 11.9358 5.67443 13.8446 4.82902C15.7533 3.98361 17.7829 3.54883 19.9333 3.54883C22.2528 3.54883 24.4273 4.03192 26.4327 4.97395C28.4381 5.94013 30.1536 7.24448 31.6033 8.91115L25.5629 11.9788C24.7656 11.3508 23.9199 10.8677 22.9534 10.5295C21.987 10.1913 20.9964 10.0223 19.9333 10.0223C18.6285 10.0223 17.3963 10.2638 16.2607 10.7711C15.1251 11.2783 14.1345 11.9546 13.2888 12.8242C12.4432 13.6938 11.7667 14.7082 11.2834 15.8677C10.8002 17.0271 10.5586 18.2831 10.5586 19.6116C10.5586 20.9401 10.8002 22.1962 11.2834 23.3556C11.7667 24.515 12.4432 25.5295 13.2888 26.3991C14.1345 27.2686 15.1251 27.945 16.2607 28.4522C17.3963 28.9595 18.6285 29.201 19.9333 29.201C21.5762 29.201 23.0743 28.8145 24.4515 28.0174C25.8287 27.2203 26.9401 26.1575 27.7616 24.829H22.6877L19.9333 19.6599H34.0919H35.5899Z" fill="#262626"/>
<path fill-rule="evenodd" clip-rule="evenodd" d="M71.2044 13.2107C71.2044 14.9981 70.7695 16.5923 69.9238 18.0657C69.054 19.515 67.9184 20.6744 66.517 21.4957L71.2285 35.6503V35.7227H64.4875L60.2351 22.8725H57.3598V35.7227H50.957V3.54883H54.1222H61.5398C62.8687 3.54883 64.1251 3.81453 65.2848 4.32178C66.4446 4.82902 67.4594 5.5295 68.3533 6.39907C69.2231 7.26864 69.9238 8.28313 70.4312 9.4667C70.9386 10.6261 71.2044 11.858 71.2044 13.2107ZM57.3357 16.6165H60.7424C61.6606 16.6165 62.4579 16.2783 63.1103 15.6261C63.7868 14.9498 64.1009 14.1527 64.1009 13.2107C64.1009 12.2686 63.7626 11.4715 63.1103 10.8194C62.4338 10.1672 61.6606 9.85318 60.7424 9.85318H57.3357V16.6165Z" fill="#262626"/>
<path fill-rule="evenodd" clip-rule="evenodd" d="M131.631 35.7227L119.43 3.54883H126.292L133.178 21.6406H133.202L140.04 3.54883H146.902L134.748 35.7227H131.631Z" fill="#262626"/>
<path fill-rule="evenodd" clip-rule="evenodd" d="M167.56 35.7227H161.134V3.54883H167.56V35.7227Z" fill="#262626"/>
<path fill-rule="evenodd" clip-rule="evenodd" d="M204.382 3.54883V9.94979H197.593V35.7227H191.19V9.94979H184.401V3.54883H204.382Z" fill="#262626"/>
<path fill-rule="evenodd" clip-rule="evenodd" d="M243.548 3.54883L233.763 19.1527V35.7227H227.36V19.1527L217.623 3.54883H225.185L230.549 12.1962L235.961 3.54883H243.548Z" fill="#262626"/>
<path fill-rule="evenodd" clip-rule="evenodd" d="M83.3811 36.9793L99.2552 28.9358C99.5935 28.9116 113.655 36.158 115.226 36.9793C115.129 36.3996 102.662 10.2643 101.357 7.43819C101.019 6.71355 100.681 6.03722 100.367 5.33674C100.077 4.73288 99.5452 3.71838 99.376 3.13867C99.1103 3.33191 98.9894 3.71838 98.7962 4.10486L91.3061 19.9986C90.9437 20.7957 83.4536 36.5203 83.3811 36.9793Z" fill="#262626"/>
<path d="M96.3561 36.1328H94.7131V46.326H96.3561V36.1328Z" fill="#262626"/>
<path d="M100.173 34.4199H98.4338V48.4537H100.173V34.4199Z" fill="#262626"/>
<path d="M103.846 36.1094H102.179V46.3026H103.846V36.1094Z" fill="#262626"/>
</svg>
