<svg class="A" width="220" height="350" viewBox="0 0 317 450" fill="none" xmlns="http://www.w3.org/2000/svg"><path fill-rule="evenodd" clip-rule="evenodd" d="M0 336.053L157.638 256.177C160.997 255.938 300.639 327.898 316.235 336.053C315.275 330.296 191.468 70.7606 178.512 42.6962C175.153 35.5002 171.794 28.784 168.675 21.8279C165.795 15.8312 160.517 5.7568 158.837 0C156.198 1.91893 154.998 5.7568 153.079 9.59466L78.6988 167.427C75.0998 175.342 0.719806 331.496 0 336.053Z" fill="#262626"></path><path d="M128.848 327.648H112.532V428.872H128.848V327.648Z" fill="#262626"></path><path d="M166.756 310.637H149.481V449.999H166.756V310.637Z" fill="#262626"></path><path d="M203.227 327.416H186.672V428.64H203.227V327.416Z" fill="#262626"></path></svg>