<svg width="143" height="119" viewBox="0 0 143 119" fill="none" xmlns="http://www.w3.org/2000/svg"><path d="M25.2 12.8008H14.4C13.6839 12.8008 12.9971 13.0852 12.4908 13.5916C11.9844 14.0979 11.7 14.7847 11.7 15.5008C11.7 16.2169 11.9844 16.9036 12.4908 17.41C12.9971 17.9163 13.6839 18.2008 14.4 18.2008H25.2C25.9161 18.2008 26.6028 17.9163 27.1092 17.41C27.6155 16.9036 27.9 16.2169 27.9 15.5008C27.9 14.7847 27.6155 14.0979 27.1092 13.5916C26.6028 13.0852 25.9161 12.8008 25.2 12.8008Z" fill="#262626"></path><path d="M50.4 12.8008H39.6C38.8839 12.8008 38.1972 13.0852 37.6908 13.5916C37.1845 14.0979 36.9 14.7847 36.9 15.5008C36.9 16.2169 37.1845 16.9036 37.6908 17.41C38.1972 17.9163 38.8839 18.2008 39.6 18.2008H50.4C51.1161 18.2008 51.8028 17.9163 52.3092 17.41C52.8155 16.9036 53.1 16.2169 53.1 15.5008C53.1 14.7847 52.8155 14.0979 52.3092 13.5916C51.8028 13.0852 51.1161 12.8008 50.4 12.8008Z" fill="#262626"></path><path d="M133.992 23.5992H129.6V9.30722C129.595 6.89309 128.634 4.5792 126.927 2.87214C125.22 1.16509 122.906 0.203976 120.492 0.199219H9.108C6.69387 0.203976 4.37998 1.16509 2.67293 2.87214C0.965874 4.5792 0.00475692 6.89309 0 9.30722V81.0912C0.00475692 83.5053 0.965874 85.8192 2.67293 87.5263C4.37998 89.2333 6.69387 90.1945 9.108 90.1992H16.2V110.791C16.2048 112.967 17.071 115.052 18.6093 116.59C20.1476 118.128 22.2326 118.994 24.408 118.999H49.392C51.5674 118.994 53.6524 118.128 55.1907 116.59C56.7289 115.052 57.5952 112.967 57.6 110.791V90.1992H70.2V110.791C70.2048 112.967 71.0711 115.052 72.6093 116.59C74.1476 118.128 76.2326 118.994 78.408 118.999H133.992C136.167 118.994 138.252 118.128 139.791 116.59C141.329 115.052 142.195 112.967 142.2 110.791V31.8072C142.195 29.6318 141.329 27.5468 139.791 26.0085C138.252 24.4703 136.167 23.604 133.992 23.5992ZM49.392 113.599H24.408C23.6647 113.595 22.9532 113.297 22.4277 112.772C21.9021 112.246 21.6047 111.535 21.6 110.791V57.0072C21.6047 56.264 21.9021 55.5525 22.4277 55.0269C22.9532 54.5013 23.6647 54.2039 24.408 54.1992H49.392C50.1353 54.2039 50.8468 54.5013 51.3723 55.0269C51.8979 55.5525 52.1953 56.264 52.2 57.0072V87.4812V110.791C52.1953 111.535 51.8979 112.246 51.3723 112.772C50.8468 113.297 50.1353 113.595 49.392 113.599ZM57.6 84.7992V57.0072C57.5952 54.8318 56.7289 52.7468 55.1907 51.2085C53.6524 49.6703 51.5674 48.804 49.392 48.7992H24.408C22.2326 48.804 20.1476 49.6703 18.6093 51.2085C17.071 52.7468 16.2048 54.8318 16.2 57.0072V84.7992H9.108C8.12458 84.7992 7.18143 84.4086 6.48605 83.7132C5.79066 83.0178 5.4 82.0746 5.4 81.0912V9.30722C5.4 8.3238 5.79066 7.38065 6.48605 6.68527C7.18143 5.98988 8.12458 5.59922 9.108 5.59922H120.492C121.475 5.59922 122.419 5.98988 123.114 6.68527C123.809 7.38065 124.2 8.3238 124.2 9.30722V23.5992H78.408C76.2326 23.604 74.1476 24.4703 72.6093 26.0085C71.0711 27.5468 70.2048 29.6318 70.2 31.8072V84.7992H57.6ZM136.8 110.791C136.795 111.535 136.498 112.246 135.972 112.772C135.447 113.297 134.735 113.595 133.992 113.599H78.408C77.6647 113.595 76.9532 113.297 76.4277 112.772C75.9021 112.246 75.6047 111.535 75.6 110.791V31.8072C75.6047 31.0639 75.9021 30.3525 76.4277 29.8269C76.9532 29.3013 77.6647 29.0039 78.408 28.9992H133.992C134.735 29.0039 135.447 29.3013 135.972 29.8269C136.498 30.3525 136.795 31.0639 136.8 31.8072V110.791Z" fill="#262626"></path><path d="M106.211 107.303C108.696 107.294 110.704 105.272 110.695 102.787C110.687 100.302 108.665 98.294 106.18 98.3027C103.694 98.3113 101.687 100.333 101.695 102.818C101.704 105.304 103.726 107.311 106.211 107.303Z" fill="#262626"></path></svg>