<svg width="137" height="129" viewBox="0 0 137 129" fill="none" xmlns="http://www.w3.org/2000/svg"><path d="M124.614 0.599609H12.186C5.508 0.599609 0.162 4.97361 0 10.6436V92.9756C0 98.6096 5.4 103.2 12.186 103.2H64.8V123H33.3C32.5839 123 31.8972 123.284 31.3908 123.79C30.8845 124.297 30.6 124.984 30.6 125.7C30.6 126.416 30.8845 127.102 31.3908 127.609C31.8972 128.115 32.5839 128.4 33.3 128.4H103.5C104.216 128.4 104.903 128.115 105.409 127.609C105.916 127.102 106.2 126.416 106.2 125.7C106.2 124.984 105.916 124.297 105.409 123.79C104.903 123.284 104.216 123 103.5 123H70.2V103.2H124.614C131.4 103.2 136.8 98.6096 136.8 92.9756V10.8236C136.8 5.18961 131.4 0.599609 124.614 0.599609ZM131.4 92.9756C131.4 95.5856 128.286 97.7996 124.614 97.7996H12.186C8.586 97.7996 5.4 95.5856 5.4 92.9756V10.7156C5.4 8.12361 8.514 5.99961 12.186 5.99961H124.614C128.214 5.99961 131.4 8.21361 131.4 10.8236V92.9756Z" fill="#262626"></path><path d="M77.886 35.9341C77.2524 35.6182 76.52 35.5638 75.8466 35.7826C75.1733 36.0014 74.6128 36.476 74.286 37.1041L59.742 65.4001C59.5801 65.7157 59.4819 66.0601 59.4531 66.4136C59.4243 66.7671 59.4653 67.1228 59.574 67.4604C59.6826 67.7981 59.8567 68.111 60.0863 68.3814C60.3159 68.6517 60.5965 68.8742 60.912 69.0361C61.2276 69.198 61.572 69.2962 61.9255 69.3251C62.279 69.3539 62.6347 69.3128 62.9723 69.2042C63.31 69.0955 63.6229 68.9214 63.8933 68.6919C64.1636 68.4623 64.3861 68.1817 64.548 67.8661L79.056 39.5161C79.3664 38.8844 79.4178 38.1564 79.1992 37.4873C78.9807 36.8182 78.5095 36.2609 77.886 35.9341Z" fill="#262626"></path><path d="M95.148 34.9434C94.6362 34.4665 93.9592 34.2068 93.2597 34.2192C92.5602 34.2315 91.8929 34.5149 91.3982 35.0096C90.9035 35.5042 90.6201 36.1716 90.6078 36.8711C90.5954 37.5706 90.8551 38.2476 91.332 38.7594L104.796 52.2054L91.332 65.6514C91.0667 65.8986 90.854 66.1967 90.7064 66.5279C90.5588 66.8591 90.4795 67.2166 90.4731 67.5791C90.4667 67.9417 90.5334 68.3018 90.6692 68.638C90.805 68.9742 91.0071 69.2796 91.2635 69.5359C91.5199 69.7923 91.8253 69.9945 92.1615 70.1302C92.4977 70.266 92.8578 70.3327 93.2203 70.3263C93.5828 70.3199 93.9403 70.2406 94.2715 70.093C94.6027 69.9454 94.9008 69.7327 95.148 69.4674L110.52 54.1134C111.026 53.6071 111.31 52.9209 111.31 52.2054C111.31 51.4899 111.026 50.8037 110.52 50.2974L95.148 34.9434Z" fill="#262626"></path><path d="M47.52 34.9439C47.0138 34.4383 46.3275 34.1543 45.612 34.1543C44.8965 34.1543 44.2103 34.4383 43.704 34.9439L28.332 50.3159C27.8264 50.8222 27.5424 51.5084 27.5424 52.2239C27.5424 52.9394 27.8264 53.6257 28.332 54.1319L43.704 69.5039C44.2159 69.9809 44.8928 70.2405 45.5923 70.2282C46.2918 70.2158 46.9592 69.9324 47.4539 69.4378C47.9486 68.9431 48.2319 68.2757 48.2443 67.5762C48.2566 66.8767 47.997 66.1998 47.52 65.6879L34.056 52.2419L47.52 38.7599C48.0257 38.2537 48.3097 37.5674 48.3097 36.8519C48.3097 36.1364 48.0257 35.4502 47.52 34.9439Z" fill="#262626"></path></svg>