<svg width="137" height="114" viewBox="0 0 137 114" fill="none" xmlns="http://www.w3.org/2000/svg">ะก<path d="M22.5 26.3996C25.4823 26.3996 27.9 23.9819 27.9 20.9996C27.9 18.0173 25.4823 15.5996 22.5 15.5996C19.5176 15.5996 17.1 18.0173 17.1 20.9996C17.1 23.9819 19.5176 26.3996 22.5 26.3996Z" fill="#262626"></path><path d="M22.5 62.3996C25.4823 62.3996 27.9 59.9819 27.9 56.9996C27.9 54.0173 25.4823 51.5996 22.5 51.5996C19.5176 51.5996 17.1 54.0173 17.1 56.9996C17.1 59.9819 19.5176 62.3996 22.5 62.3996Z" fill="#262626"></path><path d="M22.5 98.3996C25.4823 98.3996 27.9 95.9819 27.9 92.9996C27.9 90.0173 25.4823 87.5996 22.5 87.5996C19.5176 87.5996 17.1 90.0173 17.1 92.9996C17.1 95.9819 19.5176 98.3996 22.5 98.3996Z" fill="#262626"></path><path d="M119.7 18.3008H83.7C82.9839 18.3008 82.2972 18.5852 81.7908 19.0916C81.2845 19.5979 81 20.2847 81 21.0008C81 21.7169 81.2845 22.4036 81.7908 22.91C82.2972 23.4163 82.9839 23.7008 83.7 23.7008H119.7C120.416 23.7008 121.103 23.4163 121.609 22.91C122.116 22.4036 122.4 21.7169 122.4 21.0008C122.4 20.2847 122.116 19.5979 121.609 19.0916C121.103 18.5852 120.416 18.3008 119.7 18.3008Z" fill="#262626"></path><path d="M83.7 59.7008H119.7C120.416 59.7008 121.103 59.4163 121.609 58.91C122.116 58.4036 122.4 57.7169 122.4 57.0008C122.4 56.2847 122.116 55.5979 121.609 55.0916C121.103 54.5852 120.416 54.3008 119.7 54.3008H83.7C82.9839 54.3008 82.2972 54.5852 81.7908 55.0916C81.2845 55.5979 81 56.2847 81 57.0008C81 57.7169 81.2845 58.4036 81.7908 58.91C82.2972 59.4163 82.9839 59.7008 83.7 59.7008Z" fill="#262626"></path><path d="M83.7 95.7008H119.7C120.416 95.7008 121.103 95.4163 121.609 94.91C122.116 94.4036 122.4 93.7169 122.4 93.0008C122.4 92.2847 122.116 91.5979 121.609 91.0916C121.103 90.5852 120.416 90.3008 119.7 90.3008H83.7C82.9839 90.3008 82.2972 90.5852 81.7908 91.0916C81.2845 91.5979 81 92.2847 81 93.0008C81 93.7169 81.2845 94.4036 81.7908 94.91C82.2972 95.4163 82.9839 95.7008 83.7 95.7008Z" fill="#262626"></path></svg>